<mxfile host="65bd71144e">
    <diagram id="jtDUzQ1pqoce6ORhRkvu" name="Page-1">
        <mxGraphModel dx="154" dy="-9" grid="1" gridSize="10" guides="1" tooltips="1" connect="1" arrows="1" fold="1" page="0" pageScale="1" pageWidth="1100" pageHeight="850" background="none" math="0" shadow="0">
            <root>
                <mxCell id="0"/>
                <mxCell id="1" parent="0"/>
                <mxCell id="199" value="" style="rounded=0;whiteSpace=wrap;html=1;" parent="1" vertex="1">
                    <mxGeometry x="880" y="740" width="840" height="380" as="geometry"/>
                </mxCell>
                <mxCell id="197" value="&lt;font style=&quot;font-size: 14px;&quot;&gt;Core&lt;/font&gt;" style="rounded=0;whiteSpace=wrap;html=1;" parent="1" vertex="1">
                    <mxGeometry x="1167.5" y="793" width="270" height="280" as="geometry"/>
                </mxCell>
                <mxCell id="208" style="edgeStyle=none;html=1;entryX=0;entryY=0.5;entryDx=0;entryDy=0;fontSize=14;startArrow=classic;startFill=1;" parent="1" source="193" target="201" edge="1">
                    <mxGeometry relative="1" as="geometry"/>
                </mxCell>
                <mxCell id="193" value="Data Source&lt;br&gt;Port" style="rounded=0;whiteSpace=wrap;html=1;" parent="1" vertex="1">
                    <mxGeometry x="1375" y="833" width="120" height="80" as="geometry"/>
                </mxCell>
                <mxCell id="209" style="edgeStyle=none;html=1;exitX=1;exitY=0.5;exitDx=0;exitDy=0;entryX=0;entryY=0.5;entryDx=0;entryDy=0;fontSize=14;startArrow=classic;startFill=1;" parent="1" source="194" target="202" edge="1">
                    <mxGeometry relative="1" as="geometry"/>
                </mxCell>
                <mxCell id="194" value="External Resource&lt;br&gt;Port" style="rounded=0;whiteSpace=wrap;html=1;" parent="1" vertex="1">
                    <mxGeometry x="1377.5" y="953" width="115" height="80" as="geometry"/>
                </mxCell>
                <mxCell id="196" value="Presentation&lt;br&gt;Port" style="rounded=0;whiteSpace=wrap;html=1;" parent="1" vertex="1">
                    <mxGeometry x="1107.5" y="833" width="120" height="80" as="geometry"/>
                </mxCell>
                <mxCell id="211" style="edgeStyle=none;html=1;exitX=1;exitY=0.5;exitDx=0;exitDy=0;entryX=0;entryY=0.5;entryDx=0;entryDy=0;fontSize=14;startArrow=classicThin;startFill=1;" parent="1" source="201" target="204" edge="1">
                    <mxGeometry relative="1" as="geometry"/>
                </mxCell>
                <mxCell id="201" value="Data Source&lt;br&gt;Adapter" style="rounded=0;whiteSpace=wrap;html=1;" parent="1" vertex="1">
                    <mxGeometry x="1557.5" y="833" width="120" height="80" as="geometry"/>
                </mxCell>
                <mxCell id="212" style="edgeStyle=none;html=1;exitX=1;exitY=0.5;exitDx=0;exitDy=0;entryX=0;entryY=0.5;entryDx=0;entryDy=0;fontSize=14;startArrow=classic;startFill=1;" parent="1" source="202" target="205" edge="1">
                    <mxGeometry relative="1" as="geometry"/>
                </mxCell>
                <mxCell id="202" value="External Resource&lt;br&gt;Adapter" style="rounded=0;whiteSpace=wrap;html=1;" parent="1" vertex="1">
                    <mxGeometry x="1557.5" y="953" width="115" height="80" as="geometry"/>
                </mxCell>
                <mxCell id="210" style="edgeStyle=none;html=1;entryX=0;entryY=0.5;entryDx=0;entryDy=0;fontSize=14;startArrow=classic;startFill=1;" parent="1" source="203" target="196" edge="1">
                    <mxGeometry relative="1" as="geometry"/>
                </mxCell>
                <mxCell id="203" value="Presentation&lt;br&gt;Adapter" style="rounded=0;whiteSpace=wrap;html=1;" parent="1" vertex="1">
                    <mxGeometry x="927.5" y="833" width="120" height="80" as="geometry"/>
                </mxCell>
                <mxCell id="204" value="Data Source" style="rounded=0;whiteSpace=wrap;html=1;" parent="1" vertex="1">
                    <mxGeometry x="1760" y="833" width="120" height="80" as="geometry"/>
                </mxCell>
                <mxCell id="205" value="External Resource" style="rounded=0;whiteSpace=wrap;html=1;" parent="1" vertex="1">
                    <mxGeometry x="1760" y="952.25" width="120" height="81.5" as="geometry"/>
                </mxCell>
                <mxCell id="206" value="Ports and Adapters" style="text;html=1;strokeColor=none;fillColor=none;align=center;verticalAlign=middle;whiteSpace=wrap;rounded=0;fontSize=18;" parent="1" vertex="1">
                    <mxGeometry x="1186" y="680" width="233" height="20" as="geometry"/>
                </mxCell>
                <mxCell id="207" value="Platform" style="text;html=1;strokeColor=none;fillColor=none;align=center;verticalAlign=middle;whiteSpace=wrap;rounded=0;fontSize=14;" parent="1" vertex="1">
                    <mxGeometry x="880" y="750" width="120" height="30" as="geometry"/>
                </mxCell>
                <mxCell id="216" style="edgeStyle=none;html=1;entryX=0;entryY=0.5;entryDx=0;entryDy=0;fontSize=14;startArrow=classic;startFill=1;exitX=1;exitY=0.5;exitDx=0;exitDy=0;" parent="1" source="214" target="203" edge="1">
                    <mxGeometry relative="1" as="geometry">
                        <mxPoint x="840" y="873" as="sourcePoint"/>
                    </mxGeometry>
                </mxCell>
                <mxCell id="214" value="&lt;svg style=&quot;font-size: 50px;&quot; stroke=&quot;currentColor&quot; fill=&quot;currentColor&quot; stroke-width=&quot;0&quot; viewBox=&quot;0 0 24 24&quot; height=&quot;1em&quot; width=&quot;1em&quot; xmlns=&quot;http://www.w3.org/2000/svg&quot;&gt;&lt;g id=&quot;User&quot; style=&quot;font-size: 50px;&quot;&gt;&lt;g style=&quot;font-size: 50px;&quot;&gt;&lt;path d=&quot;M17.438,21.937H6.562a2.5,2.5,0,0,1-2.5-2.5V18.61c0-3.969,3.561-7.2,7.938-7.2s7.938,3.229,7.938,7.2v.827A2.5,2.5,0,0,1,17.438,21.937ZM12,12.412c-3.826,0-6.938,2.78-6.938,6.2v.827a1.5,1.5,0,0,0,1.5,1.5H17.438a1.5,1.5,0,0,0,1.5-1.5V18.61C18.938,15.192,15.826,12.412,12,12.412Z&quot; style=&quot;font-size: 50px;&quot;&gt;&lt;/path&gt;&lt;path d=&quot;M12,9.911a3.924,3.924,0,1,1,3.923-3.924A3.927,3.927,0,0,1,12,9.911Zm0-6.847a2.924,2.924,0,1,0,2.923,2.923A2.926,2.926,0,0,0,12,3.064Z&quot; style=&quot;font-size: 50px;&quot;&gt;&lt;/path&gt;&lt;/g&gt;&lt;/g&gt;&lt;/svg&gt;" style="text;whiteSpace=wrap;html=1;fontSize=50;" parent="1" vertex="1">
                    <mxGeometry x="780" y="843" width="50" height="60" as="geometry"/>
                </mxCell>
                <mxCell id="215" value="User" style="text;html=1;align=center;verticalAlign=middle;resizable=0;points=[];autosize=1;strokeColor=none;fillColor=none;fontSize=12;" parent="1" vertex="1">
                    <mxGeometry x="780" y="895" width="50" height="30" as="geometry"/>
                </mxCell>
                <mxCell id="217" value="External" style="text;html=1;strokeColor=none;fillColor=none;align=center;verticalAlign=middle;whiteSpace=wrap;rounded=0;fontSize=14;" parent="1" vertex="1">
                    <mxGeometry x="790" y="700" width="50" height="22" as="geometry"/>
                </mxCell>
            </root>
        </mxGraphModel>
    </diagram>
</mxfile>